<svg width="181" height="41" viewBox="0 0 181 41" fill="none" xmlns="http://www.w3.org/2000/svg">
<path d="M38.0714 0H2.91942C1.30871 0 0 1.32701 0 2.95603V38.044C0 39.673 1.30871 41 2.91942 41H38.0714C39.6821 41 41 39.673 41 38.044V2.95603C41 1.32701 39.6821 0 38.0714 0ZM12.3915 35.1429H6.31473V15.5763H12.4007V35.1429H12.3915ZM9.35312 12.904C7.40379 12.904 5.82969 11.3208 5.82969 9.38058C5.82969 7.4404 7.40379 5.85714 9.35312 5.85714C11.2933 5.85714 12.8766 7.4404 12.8766 9.38058C12.8766 11.3299 11.3025 12.904 9.35312 12.904ZM35.1703 35.1429H29.0935V25.625C29.0935 23.3554 29.0478 20.4359 25.9362 20.4359C22.7696 20.4359 22.2846 22.9069 22.2846 25.4603V35.1429H16.2078V15.5763H22.0375V18.2487H22.1199C22.9344 16.7112 24.9203 15.0913 27.8763 15.0913C34.0263 15.0913 35.1703 19.1455 35.1703 24.417V35.1429Z" fill="white"/>
<path d="M91 0.5C79.9543 0.5 71 9.45427 71 20.5C71 31.5457 79.9543 40.5 91 40.5C102.046 40.5 111 31.5457 111 20.5C111 9.45427 102.046 0.5 91 0.5ZM100.27 14.1016C99.9694 17.2641 98.667 24.9385 98.0042 28.4806C97.7239 29.9794 97.1718 30.4819 96.6374 30.531C95.4761 30.638 94.594 29.7635 93.4691 29.0261C91.7089 27.8723 90.7144 27.1539 89.0057 26.028C87.0311 24.7268 88.3112 24.0119 89.4365 22.8425C89.731 22.5366 94.8484 17.882 94.9474 17.4598C94.9598 17.4069 94.9716 17.2098 94.8544 17.1062C94.7371 17.0027 94.5648 17.0377 94.4402 17.0659C94.2637 17.106 91.4517 18.9646 86.0041 22.6419C85.206 23.1899 84.483 23.457 83.8352 23.443C83.1211 23.4276 81.7475 23.0393 80.7263 22.7073C79.4738 22.3002 78.4783 22.0849 78.565 21.3935C78.6102 21.0333 79.1061 20.665 80.0529 20.2886C85.8833 17.7484 89.7712 16.0737 91.7165 15.2644C97.2706 12.9542 98.4248 12.5529 99.177 12.5395C99.3425 12.5368 99.7124 12.5777 99.952 12.7722C100.111 12.9107 100.213 13.104 100.237 13.3138C100.277 13.5743 100.289 13.8386 100.27 14.1016Z" fill="white"/>
<path d="M176.888 12.3527C176.914 12.708 176.914 13.0634 176.914 13.4187C176.914 24.2563 168.665 36.7437 153.589 36.7437C148.944 36.7437 144.629 35.3984 141 33.0635C141.66 33.1396 142.294 33.165 142.98 33.165C146.812 33.165 150.34 31.8706 153.157 29.6625C149.553 29.5863 146.533 27.2259 145.492 23.9771C146 24.0532 146.508 24.104 147.041 24.104C147.777 24.104 148.513 24.0025 149.198 23.8249C145.442 23.0634 142.624 19.7639 142.624 15.7791V15.6777C143.716 16.2868 144.985 16.6675 146.33 16.7182C144.122 15.2461 142.675 12.7334 142.675 9.89076C142.675 8.36794 143.081 6.972 143.792 5.75371C147.827 10.7283 153.893 13.977 160.695 14.3324C160.569 13.7233 160.492 13.0888 160.492 12.4543C160.492 7.93646 164.147 4.25629 168.69 4.25629C171.051 4.25629 173.183 5.24613 174.68 6.84512C176.533 6.48981 178.31 5.8045 179.883 4.86543C179.274 6.76903 177.98 8.36802 176.279 9.38318C177.929 9.2056 179.528 8.74865 181 8.11419C179.883 9.73849 178.487 11.1851 176.888 12.3527Z" fill="white"/>
</svg>
